<?xml version="1.0" encoding="iso-8859-1"?>
<!-- Generator: Adobe Illustrator 15.1.0, SVG Export Plug-In . SVG Version: 6.00 Build 0)  -->
<!DOCTYPE svg PUBLIC "-//W3C//DTD SVG 1.1//EN" "http://www.w3.org/Graphics/SVG/1.1/DTD/svg11.dtd">
<svg version="1.1" id="Layer_1" xmlns="http://www.w3.org/2000/svg" xmlns:xlink="http://www.w3.org/1999/xlink" x="0px" y="0px"
	 width="30.394px" height="30.397px" viewBox="0 0 30.394 30.397" style="enable-background:new 0 0 30.394 30.397;"
	 xml:space="preserve">
<path style="fill:#113352;" d="M30.182,15.649c0.282-0.248,0.282-0.653,0-0.9l-2.605-2.279c-0.282-0.248-0.415-0.742-0.292-1.098
	L28.4,8.096c0.123-0.354-0.079-0.708-0.451-0.78l-3.393-0.67c-0.371-0.072-0.731-0.438-0.806-0.806l-0.67-3.394
	c-0.073-0.37-0.423-0.571-0.779-0.45l-3.277,1.117c-0.355,0.119-0.85-0.013-1.099-0.296l-2.277-2.604
	c-0.248-0.285-0.655-0.285-0.902,0l-2.276,2.604c-0.246,0.283-0.741,0.415-1.101,0.296L8.095,1.996
	c-0.357-0.121-0.709,0.08-0.781,0.45L6.646,5.84C6.571,6.208,6.208,6.573,5.839,6.646l-3.394,0.67
	C2.073,7.388,1.87,7.741,1.994,8.096l1.12,3.276c0.12,0.355-0.014,0.85-0.298,1.098l-2.604,2.279c-0.283,0.247-0.283,0.652,0,0.9
	l2.604,2.278c0.284,0.246,0.418,0.74,0.298,1.098l-1.12,3.273c-0.124,0.357,0.079,0.711,0.452,0.783l3.394,0.67
	c0.368,0.072,0.731,0.436,0.807,0.805l0.668,3.393c0.072,0.371,0.424,0.576,0.781,0.453l3.273-1.117
	c0.359-0.123,0.854,0.012,1.101,0.295l2.276,2.604c0.247,0.285,0.654,0.285,0.902,0l2.277-2.604
	c0.249-0.283,0.743-0.418,1.099-0.295l3.277,1.117c0.356,0.119,0.706-0.082,0.779-0.453l0.67-3.393
	c0.074-0.369,0.435-0.732,0.806-0.805l3.393-0.67c0.372-0.072,0.574-0.426,0.451-0.783l-1.115-3.273
	c-0.123-0.357,0.01-0.852,0.292-1.098L30.182,15.649z M10.863,21.15c-0.64,0.234-0.988,0.145-1.426-0.338L7.5,18.705l0.913,2.387
	c0.089,0.242,0.087,0.494-0.011,0.717c-0.1,0.219-0.279,0.389-0.509,0.477l-0.015,0.004c-0.479,0.176-0.982-0.061-1.168-0.547
	l-2.104-5.508c-0.201-0.525,0.027-1.006,0.58-1.216c0.469-0.172,0.861-0.169,1.362,0.357l1.928,2.078l-0.899-2.355
	c-0.095-0.237-0.09-0.495,0.008-0.718c0.103-0.216,0.279-0.389,0.511-0.475c0.493-0.18,0.995,0.059,1.183,0.544l2.079,5.455
	C11.591,20.505,11.287,20.988,10.863,21.15z M15.786,19.146l-2.429,0.926l-0.026,0.01c-0.572,0.207-0.989,0.014-1.214-0.563
	L10.125,14.3c-0.223-0.584-0.029-1.01,0.555-1.238l2.364-0.901c0.661-0.239,1.034,0.078,1.177,0.452
	c0.085,0.223,0.089,0.445,0.003,0.632c-0.101,0.216-0.291,0.382-0.578,0.49l-1.557,0.597l0.387,1.016l1.439-0.552
	c0.654-0.237,1.034,0.078,1.179,0.452c0.143,0.383,0.067,0.875-0.577,1.122l-1.443,0.548l0.487,1.271l1.623-0.621
	c0.656-0.234,1.032,0.08,1.177,0.455C16.507,18.402,16.432,18.898,15.786,19.146z M22.053,16.9c-0.79,0.285-1.046,0.115-1.41-0.508
	l-1.167-1.969l0.507,2.465c0.135,0.688-0.279,0.906-0.756,1.086l-0.048,0.018c-0.603,0.221-0.983,0.115-1.268-0.355l-2.979-4.838
	c-0.127-0.211-0.217-0.367-0.263-0.486c-0.177-0.469,0.063-0.92,0.597-1.124c0.274-0.1,0.754-0.169,1.077,0.411l1.699,2.926
	l-0.692-3.328c-0.071-0.348-0.073-0.775,0.53-1.003c0.613-0.223,0.892,0.12,1.056,0.398l1.751,2.911l-0.73-3.244
	c-0.111-0.527,0.083-0.892,0.582-1.084c0.546-0.198,0.944-0.023,1.139,0.489c0.057,0.15,0.09,0.304,0.123,0.503l1.026,5.449
	C22.969,16.405,22.756,16.626,22.053,16.9z M23.808,12.741l-0.663-1.182c-0.145-0.293-0.232-0.496-0.294-0.656L22.32,9.509
	c-0.106-0.268-0.107-0.525-0.012-0.738c0.063-0.143,0.205-0.34,0.524-0.463c0.535-0.195,0.98,0.021,1.188,0.551l0.53,1.397
	c0.059,0.159,0.129,0.368,0.213,0.67l0.326,1.341c0.062,0.206,0.207,0.711-0.379,0.938l-0.016,0.006
	C24.125,13.417,23.903,12.946,23.808,12.741z M26.154,15.026c-0.106,0.242-0.307,0.43-0.556,0.525l-0.014,0.006
	c-0.511,0.182-1.081-0.078-1.271-0.584c-0.095-0.248-0.09-0.518,0.02-0.762c0.111-0.242,0.305-0.428,0.554-0.522
	c0.523-0.192,1.096,0.068,1.287,0.573C26.272,14.512,26.265,14.783,26.154,15.026z"/>
</svg>
